HIERARCHY
ROOT root
{
	OFFSET	0	13.1	24.9
	CHANNELS 6  Xposition Yposition Zposition Xrotation Yrotation Zrotation
	JOINT spine_1
	{
		OFFSET	0	9.99999	0
		CHANNELS 3  Xrotation Yrotation Zrotation
		JOINT spine_2
		{
			OFFSET	0	112	-10
			CHANNELS 3  Xrotation Yrotation Zrotation
			JOINT spine_3
			{
				OFFSET	0	206.5	19.3
				CHANNELS 3  Xrotation Yrotation Zrotation
				JOINT spine_4
				{
					OFFSET	0	110.4	14.6
					CHANNELS 3  Xrotation Yrotation Zrotation
					JOINT neck_1
					{
						OFFSET	0	71.8	-50.3
						CHANNELS 3  Xrotation Yrotation Zrotation
						JOINT neck_2
						{
							OFFSET	0	86.2	-25.8
							CHANNELS 3  Xrotation Yrotation Zrotation
							JOINT head_ee
							{
								OFFSET	0	179.8	-8.7
								CHANNELS 3  Xrotation Yrotation Zrotation
								End Site
								{
									OFFSET	1	0	0
								}
							}
						}
					}
					JOINT left_clavicle
					{
						OFFSET	-43.2	22.4	-70.8
						CHANNELS 3  Xrotation Yrotation Zrotation
						JOINT left_shoulder
						{
							OFFSET	-93.9	-5.79999	48.7
							CHANNELS 3  Xrotation Yrotation Zrotation
							JOINT left_elbow
							{
								OFFSET	-291.4	-30.8	15.2
								CHANNELS 3  Xrotation Yrotation Zrotation
								JOINT left_lowarm_twist
								{
									OFFSET	-110.7	-3.89999	13.6
									CHANNELS 3  Xrotation Yrotation Zrotation
									JOINT left_hand
									{
										OFFSET	-110.7	-3.89999	13.6
										CHANNELS 3  Xrotation Yrotation Zrotation
										JOINT left_ee
										{
											OFFSET	-80.8	-5.10001	12.1
											CHANNELS 3  Xrotation Yrotation Zrotation
											End Site
											{
												OFFSET	1	0	0
											}
										}
									}
								}
							}
						}
					}
					JOINT right_clavicle
					{
						OFFSET	43.2	22.4	-70.8
						CHANNELS 3  Xrotation Yrotation Zrotation
						JOINT right_shoulder
						{
							OFFSET	93.9	-5.79999	48.7
							CHANNELS 3  Xrotation Yrotation Zrotation
							JOINT right_elbow
							{
								OFFSET	291.4	-30.8	15.2
								CHANNELS 3  Xrotation Yrotation Zrotation
								JOINT right_lowarm_twist
								{
									OFFSET	110.7	-3.89999	13.6
									CHANNELS 3  Xrotation Yrotation Zrotation
									JOINT right_hand
									{
										OFFSET	110.7	-3.89999	13.6
										CHANNELS 3  Xrotation Yrotation Zrotation
										JOINT right_ee
										{
											OFFSET	80.8	-5.10001	12.1
											CHANNELS 3  Xrotation Yrotation Zrotation
											End Site
											{
												OFFSET	1	0	0
											}
										}
									}
								}
							}
						}
					}
				}
			}
		}
	}
	JOINT left_hip
	{
		OFFSET	-82.8	-127.5	0.300001
		CHANNELS 3  Xrotation Yrotation Zrotation
		JOINT left_knee
		{
			OFFSET	-28.2	-396.7	2.2
			CHANNELS 3  Xrotation Yrotation Zrotation
			JOINT left_ankle
			{
				OFFSET	-11.7	-411.3	35.4
				CHANNELS 3  Xrotation Yrotation Zrotation
				JOINT left_toes
				{
					OFFSET	0	-60	-88.6
					CHANNELS 3  Xrotation Yrotation Zrotation
					JOINT left_foot_ee
					{
						OFFSET	-22.5	-16.5	-42.2
						CHANNELS 3  Xrotation Yrotation Zrotation
						End Site
						{
							OFFSET	1	0	0
						}
					}
				}
			}
		}
	}
	JOINT right_hip
	{
		OFFSET	82.8	-127.5	0.300001
		CHANNELS 3  Xrotation Yrotation Zrotation
		JOINT right_knee
		{
			OFFSET	28.2	-396.7	2.2
			CHANNELS 3  Xrotation Yrotation Zrotation
			JOINT right_ankle
			{
				OFFSET	11.7	-411.3	35.4
				CHANNELS 3  Xrotation Yrotation Zrotation
				JOINT right_toes
				{
					OFFSET	0	-60	-88.6
					CHANNELS 3  Xrotation Yrotation Zrotation
					JOINT right_foot_ee
					{
						OFFSET	22.5	-16.5	-42.2
						CHANNELS 3  Xrotation Yrotation Zrotation
						End Site
						{
							OFFSET	1	0	0
						}
					}
				}
			}
		}
	}
}
MOTION
Frames: 11
Frame Time: 0.02
2420.98 724.07 -1244.35 -7.49971 51.1332 5.24567 2.55531 0.095199 0.381379 2.55538 0.0707381 0.386663 2.55585 0.00542375 0.393043 2.55564 0.0674291 0.387254 -19.4102 19.6239 6.1476 -21.1908 34.6623 14.4482 -0.0 0.0 -0.0 0.268573 23.2152 3.05672 -11.8893 -21.6104 61.9759 2.18968 -47.3205 0.959483 -26.3925 -1.63346 2.92237 -0.124771 1.2434 -0.307118 -0.0 0.0 -0.0 13.3585 25.6624 -26.5473 -22.2078 12.5047 -64.8829 0.55363 15.3366 -0.0745424 75.354 3.31402 8.32648 -2.22919 -27.6454 1.35725 0.0 0.0 0.0 -0.979862 56.1107 -1.01107 0.122736 -0.00507321 -0.0181516 24.2488 -30.6492 -4.07597 -4.9325 0.0 0.0 -0.0 0.0 -0.0 9.32769 -2.71096 2.32152 -10.4902 -0.287772 -1.58195 34.7037 33.6221 5.62784 -12.3334 0.0 0.0 0.0 0.0 0.0 
2418.28 727.76 -1246.72 -7.4734 51.3002 5.19663 2.52647 0.176376 0.37754 2.52654 0.151995 0.387998 2.52757 0.085127 0.407919 2.52737 0.148481 0.389356 -19.1518 19.865 6.15766 -20.9451 35.0882 14.4865 -0.0 0.0 -0.0 0.112452 23.51 2.87322 -13.044 -22.0577 62.1171 2.16041 -46.9363 0.938037 -27.0745 -1.69277 2.9866 0.0204387 0.635807 0.403994 -0.0 0.0 -0.0 13.3855 25.4126 -26.639 -21.8794 12.4079 -64.8689 0.549253 15.221 -0.0733889 75.3183 3.31008 8.32414 -2.37651 -27.6724 2.14664 0.0 0.0 0.0 -0.72122 55.8344 -1.28318 -0.581549 0.0235086 0.0861487 23.445 -30.5214 -3.9545 -4.58919 0.0 0.0 -0.0 0.0 -0.0 9.14504 -2.6271 2.33429 -10.4952 -0.28784 -1.58271 34.4002 33.0548 5.54832 -12.2909 0.0 0.0 0.0 0.0 0.0 
2415.73 726.707 -1248.44 -7.62207 52.1794 5.10817 2.54464 0.0665562 0.471824 2.54476 0.0363983 0.475103 2.54504 -0.043242 0.474529 2.54473 0.0322429 0.475403 -18.3113 20.044 5.18588 -20.0989 35.8247 13.3989 -0.0 0.0 -0.0 0.719119 23.083 3.66489 -13.3921 -21.5996 61.6372 1.99716 -44.6879 0.820955 -27.4144 -1.72262 3.01834 0.0658281 0.681918 0.72593 -0.0 0.0 -0.0 13.2843 25.0095 -26.4495 -21.931 13.1214 -64.8456 0.551926 15.2916 -0.0740922 74.6858 3.24054 8.28229 -2.82661 -28.4081 4.2046 0.0 0.0 0.0 0.508262 55.5664 -2.24375 -1.34311 0.0529683 0.199308 24.2317 -30.474 -4.06414 -2.84935 0.0 0.0 -0.0 0.0 -0.0 8.37082 1.05368 2.65358 -10.6749 -0.290227 -1.61018 34.0035 32.4183 5.45419 -12.2059 0.0 0.0 0.0 0.0 0.0 
2413.56 725.468 -1252.94 -8.0559 51.6659 5.23287 2.56577 0.111459 0.496614 2.56591 0.0796326 0.5027 2.56659 -0.00501517 0.508943 2.56623 0.0754248 0.503348 -17.8098 20.4178 5.50658 -19.5566 36.311 13.6695 -0.0 0.0 -0.0 0.496225 22.9607 3.3457 -14.0874 -21.5435 62.2151 1.88826 -43.0836 0.745456 -28.0744 -1.78111 3.07948 0.0680319 1.03783 0.889826 -0.0 0.0 -0.0 13.3789 25.1335 -26.6555 -21.3511 12.3088 -64.7971 0.569798 15.7625 -0.0788764 75.2356 3.30097 8.31872 -2.82647 -27.1527 4.88558 0.0 0.0 0.0 -0.3494 55.4121 -1.7434 -2.0127 0.0776237 0.299112 24.2706 -30.4028 -4.06583 -2.2596 0.0 0.0 -0.0 0.0 -0.0 8.28842 0.745223 2.5778 -10.8276 -0.292189 -1.63352 32.6442 32.8248 5.32229 -12.2465 0.0 0.0 0.0 0.0 0.0 
2414.68 723.066 -1253.33 -7.81867 52.1332 5.01329 2.55969 0.087744 0.585562 2.55988 0.050306 0.589959 2.56036 -0.0485009 0.59011 2.55988 0.045303 0.590364 -18.3355 20.2988 4.75598 -20.2364 36.5417 13.1741 -0.0 0.0 -0.0 0.566655 23.1927 3.46467 -14.7622 -21.7698 62.0934 1.88282 -43.0011 0.741741 -29.419 -1.90245 3.20194 0.00678736 2.73655 1.19385 -0.0 0.0 -0.0 13.3994 25.6436 -26.6446 -21.1741 12.3778 -64.8182 0.631036 17.3592 -0.0963331 76.1987 3.40766 8.38113 -2.79583 -27.5034 4.52717 0.0 0.0 0.0 0.613252 55.6182 -2.53842 -2.65713 0.100248 0.395424 25.5851 -29.3783 -4.19386 -0.585322 0.0 0.0 -0.0 0.0 -0.0 7.91159 3.56725 2.4902 -10.9531 -0.293754 -1.65271 33.3679 32.3363 5.37338 -11.4427 0.0 0.0 0.0 0.0 0.0 
2413.52 722.262 -1254.57 -8.28527 51.7639 5.31202 2.58366 0.0847804 0.635108 2.58388 0.0441958 0.639215 2.58434 -0.062451 0.63769 2.58377 0.039042 0.639551 -17.8383 20.3559 3.96586 -19.7361 37.0098 12.3079 -0.0 0.0 -0.0 0.625393 23.1561 3.54221 -15.07 -21.2685 62.0673 1.78242 -41.4393 0.674264 -30.4478 -1.99722 3.29371 -0.122011 3.25359 0.55821 -0.0 0.0 -0.0 13.2387 26.2554 -26.199 -21.1879 13.2527 -64.8317 0.720943 19.6534 -0.124876 77.728 3.57918 8.47654 -2.68498 -28.3408 3.47408 0.0 0.0 0.0 0.855636 55.3048 -2.84676 -3.13283 0.116252 0.466676 26.0184 -29.1471 -4.24037 1.15603 -0.0 -0.0 -0.0 0.0 -0.0 7.75819 5.77035 2.42828 -10.4449 -0.287155 -1.57502 33.9055 32.1074 5.41998 -11.1705 0.0 0.0 0.0 0.0 0.0 
2414.08 721.927 -1258.57 -8.3902 51.7051 5.53561 2.56829 0.0930031 0.632871 2.56851 0.0525442 0.637506 2.56905 -0.0541043 0.637376 2.56849 0.0472343 0.637921 -17.5953 20.3899 3.20947 -19.5266 37.4509 11.5624 -0.0 0.0 -0.0 0.637697 23.3698 3.57852 -15.7697 -21.039 62.0204 1.74559 -40.8468 0.650032 -30.5859 -2.01006 3.3059 -0.0960278 3.99073 1.03889 -0.0 0.0 -0.0 13.149 26.4966 -25.9619 -20.7354 13.2903 -65.2814 0.811747 21.9057 -0.157097 77.7767 3.58468 8.4795 -2.77298 -27.7074 4.29191 0.0 0.0 0.0 0.950388 55.2658 -3.0889 -3.27763 0.121006 0.48839 25.8834 -28.013 -4.16414 1.48088 -0.0 -0.0 -0.0 0.0 -0.0 7.96423 7.41065 1.52946 -10.3668 -0.286079 -1.56308 32.49 31.9 5.23722 -11.1608 0.0 0.0 0.0 0.0 0.0 
2416.27 721.631 -1262.16 -8.74867 50.9031 6.1627 2.60151 0.250782 0.590531 2.60168 0.212697 0.605292 2.60391 0.10957 0.632148 2.60341 0.208029 0.606912 -17.497 20.2523 2.60572 -19.4306 37.4993 10.9178 -0.0 0.0 -0.0 0.515537 23.4141 3.41516 -16.4406 -21.0 61.9931 1.71057 -40.2734 0.627265 -30.976 -2.04651 3.34017 -0.135474 4.66845 1.06287 -0.0 0.0 -0.0 13.1536 26.6646 -25.9519 -20.5887 13.5973 -65.5387 0.874521 23.4226 -0.181288 78.3292 3.6473 8.5128 -2.6991 -28.0592 3.70072 0.0 0.0 0.0 3.06718 55.3577 -4.84319 -3.29425 0.121548 0.490882 26.1457 -27.3831 -4.168 2.26938 -0.0 -0.0 -0.0 0.0 -0.0 8.06232 8.07116 0.965134 -10.2748 -0.284791 -1.54902 32.5213 31.3057 5.19993 -10.9728 0.0 0.0 0.0 0.0 0.0 
2417.13 719.929 -1265.24 -8.99015 50.4691 6.47788 2.59826 0.331063 0.617816 2.59843 0.291079 0.637629 2.60167 0.181497 0.677019 2.60114 0.28614 0.639861 -17.2939 20.2866 2.30312 -19.2215 37.7096 10.5836 -0.0 0.0 -0.0 0.625715 23.3264 3.55814 -17.2118 -21.6582 61.1283 1.67363 -39.6578 0.603534 -31.2011 -2.06764 3.35983 -0.170354 5.06978 1.0018 -0.0 0.0 -0.0 13.1328 26.6752 -25.9025 -20.7085 13.8882 -65.8322 0.892123 23.8419 -0.188344 78.8224 3.70345 8.542 -2.68302 -28.7272 3.25788 0.0 0.0 0.0 4.18833 55.3628 -5.87689 -4.07161 0.146096 0.607658 28.5133 -27.9275 -4.50186 3.59892 -0.0 -0.0 -0.0 0.0 -0.0 8.22586 8.89984 0.467282 -10.3787 -0.286244 -1.5649 33.3967 31.8793 5.34391 -10.1448 0.0 0.0 0.0 0.0 0.0 
2418.55 720.268 -1268.26 -9.54353 49.8503 7.09374 2.60382 0.353807 0.642333 2.604 0.312218 0.663544 2.60762 0.198129 0.706055 2.60705 0.307148 0.665906 -17.2668 20.1123 1.89559 -19.1821 37.592 10.1207 -0.0 0.0 -0.0 0.552687 23.3918 3.46398 -17.3689 -20.9791 61.2798 1.65493 -39.3419 0.591642 -31.3644 -2.08303 3.37404 -0.202651 5.47551 0.960058 -0.0 0.0 -0.0 13.0779 26.8277 -25.7569 -20.6489 14.1358 -65.9437 0.948153 25.1584 -0.211581 78.9804 3.72149 8.55125 -2.63772 -28.7489 3.00258 0.0 0.0 0.0 5.04136 55.3858 -6.48973 -3.35987 0.123682 0.500728 27.6812 -27.2376 -4.36036 3.77711 -0.0 -0.0 -0.0 0.0 -0.0 8.81543 8.96543 -0.297863 -9.73358 -0.27676 -1.46637 32.5836 31.7194 5.23588 -10.3394 0.0 0.0 0.0 0.0 0.0 
2419.01 719.097 -1267.04 -9.5793 49.642 7.28811 2.61013 0.343628 0.576068 2.61026 0.306275 0.596765 2.61346 0.203381 0.639193 2.61302 0.301775 0.599053 -16.7913 20.1009 1.46376 -18.6424 37.7667 9.53095 -0.0 0.0 -0.0 0.428943 23.0576 3.26205 -17.6833 -22.0357 61.4181 1.69568 -40.0267 0.617665 -31.4639 -2.09242 3.38267 -0.188187 5.19552 0.937481 -0.0 0.0 -0.0 13.0394 26.8992 -25.6592 -20.7786 14.259 -65.5926 0.962596 25.4933 -0.217759 79.4305 3.77304 8.57734 -2.59279 -28.7127 2.77987 0.0 0.0 0.0 5.34966 55.397 -6.8143 -3.63182 0.132403 0.541552 28.8144 -28.2962 -4.55974 4.5525 -0.0 -0.0 -0.0 0.0 -0.0 9.0162 9.26976 -0.539778 -9.60017 -0.27466 -1.446 33.1556 31.7796 5.30835 -10.1054 0.0 0.0 0.0 0.0 0.0 
